<?xml version="1.0" encoding="UTF-8" standalone="no"?>
<svg
   viewBox="0 0 16 16"
   version="1.1"
   id="svg2"
   sodipodi:docname="custom-icons-symbolic.svg"
   inkscape:version="1.4 (1:1.4+202410161351+e7c3feb100)"
   xmlns:inkscape="http://www.inkscape.org/namespaces/inkscape"
   xmlns:sodipodi="http://sodipodi.sourceforge.net/DTD/sodipodi-0.dtd"
   xmlns="http://www.w3.org/2000/svg"
   xmlns:svg="http://www.w3.org/2000/svg">
  <defs
     id="defs2" />
  <sodipodi:namedview
     id="namedview2"
     pagecolor="#ffffff"
     bordercolor="#000000"
     borderopacity="0.25"
     inkscape:showpageshadow="2"
     inkscape:pageopacity="0.0"
     inkscape:pagecheckerboard="0"
     inkscape:deskcolor="#d1d1d1"
     inkscape:zoom="31.404053"
     inkscape:cx="7.4671891"
     inkscape:cy="8.9001252"
     inkscape:window-width="1860"
     inkscape:window-height="1011"
     inkscape:window-x="0"
     inkscape:window-y="0"
     inkscape:window-maximized="1"
     inkscape:current-layer="svg2" />
  <g
     fill="#222222"
     id="g3"
     transform="translate(-0.16009403)">
    <path
       d="m 5.207031,1.292969 c -0.390625,-0.390625 -1.023437,-0.390625 -1.414062,0 l -2.5,2.5 c -0.390625,0.390625 -0.390625,1.023437 0,1.414062 l 2.5,2.5 c 0.390625,0.390625 1.023437,0.390625 1.414062,0 l 2.496094,-2.5 c 0.390625,-0.390625 0.390625,-1.023437 0,-1.414062 z m 0,0"
       id="path1-3" />
    <path
       d="m 10,12 c 0,1.65625 -1.34375,3 -3,3 -1.660156,0 -3,-1.34375 -3,-3 0,-1.65625 1.339844,-3 3,-3 1.65625,0 3,1.34375 3,3 z m 0,0"
       id="path2-6" />
    <path
       d="M 11.945312,2.003906 C 11.605469,2.019531 11.300781,2.207031 11.132812,2.5 L 8.8125,6.5 C 8.425781,7.164062 8.90625,8 9.675781,8 h 4.644531 c 0.769532,0 1.25,-0.835938 0.863282,-1.5 l -2.320313,-4 C 12.675781,2.171875 12.320312,1.980469 11.945312,2.003906 Z m 0,0"
       id="path3" />
  </g>
</svg>
